<?xml version="1.0" encoding="UTF-8"?>
<svg width="250px" height="160px" viewBox="0 0 250 160" version="1.1" xmlns="http://www.w3.org/2000/svg" xmlns:xlink="http://www.w3.org/1999/xlink">
    <title>lume</title>
    <g id="lume" stroke="none" stroke-width="1" fill="none" fill-rule="evenodd">
        <path d="M21.9718395,15.0456306 C21.0141642,18.9386651 22.4066042,21.12018 24.6949631,22.9464498 L25.0635162,23.2320537 C25.126112,23.2792283 25.1892751,23.3262062 25.2529792,23.3730123 L25.7229647,23.709016 L26.2095981,24.0411021 L26.7106487,24.371351 L28.8144113,25.7155844 L29.3540887,26.0678542 L29.8947996,26.4307695 L30.2934502,26.7068207 L30.2934502,26.7068207 L30.6905497,26.9906494 C30.7565537,27.0386489 30.8224558,27.0870073 30.888237,27.1357422 L31.2813255,27.4328081 C31.4117721,27.5334289 31.5415859,27.635695 31.6706171,27.7397461 L32.0552137,28.0573939 C32.2461884,28.2190348 32.4350657,28.3850062 32.6213401,28.5557791 L32.9902689,28.9038668 C35.9724003,31.8011475 38.1702956,36.0632055 37.3822505,43.7434879 C38.2996998,42.849793 38.776699,41.2231346 39.0749073,39.2888952 L39.1680471,38.6333403 L39.2500967,37.9585028 L39.3232096,37.2678837 L39.3895395,36.564984 L39.6595406,33.3690546 L39.719521,32.7343823 L39.7850475,32.1077211 L39.8576671,31.4915861 L39.9389271,30.8884926 L40.0303745,30.3009557 C40.4347781,27.8887886 41.1447703,25.9472433 42.6639781,25.2950731 C41.3719188,28.3009329 42.3042014,31.2365356 44.100213,34.4295939 L44.4467548,35.0313894 C44.5654212,35.2330469 44.6871294,35.4357902 44.8115472,35.6396991 L45.2412721,36.3324316 C45.31445,36.4486627 45.3883669,36.5652911 45.4629638,36.682331 L46.3869808,38.1074762 L47.5992116,39.9527977 L48.3400348,41.0981664 L48.5870951,41.4868312 L48.5870951,41.4868312 L49.0792658,42.2749863 L49.60851,43.1487164 L49.60851,43.1487164 L49.9562812,43.7414846 L49.9562812,43.7414846 L50.2987461,44.3427814 L50.2987461,44.3427814 L50.6348249,44.9528668 C50.6902458,45.0552946 50.7453557,45.1580993 50.800132,45.2612866 L51.1246069,45.8850426 C51.1779589,45.9897813 51.2309324,46.0949133 51.2835047,46.200444 L51.5939462,46.8384559 C51.6448244,46.945603 51.6952564,47.0531597 51.7452199,47.1611314 L52.0391984,47.8139843 C54.4871639,53.4062964 55.5993985,60.1061027 52.391788,68.6321468 C54.9321911,66.5430724 56.5042318,63.6884766 57.1079102,60.0683594 C60.4638672,67.3818359 60.3439128,75.2181803 56.7480469,83.5773926 C58.4545898,82.1777925 59.6607792,80.3257921 60.3666148,78.0213915 L60.4651447,78.5949611 L60.6496261,79.7092192 L60.8173365,80.7796358 L60.9682759,81.8062109 L61.1024442,82.7889443 C61.123408,82.9490798 61.143673,83.1073885 61.1632392,83.2638705 L61.272251,84.1808416 L61.3644917,85.0539712 L61.4043229,85.4740955 L61.4043229,85.4740955 L61.4714071,86.2814627 C61.5105395,86.8050937 61.5384912,87.299497 61.5552623,87.7646726 L61.5720333,88.4405152 L61.5741297,88.7619959 L61.5741297,88.7619959 C61.5741297,97.9349623 57.168958,106.079046 50.3587242,111.194136 C50.1378641,106.529739 49.8649547,102.083323 49.539978,97.8525391 C49.5120611,97.4890966 49.4824863,97.1335579 49.4511901,96.7855743 L49.3520744,95.7639403 C48.7430381,89.9325578 47.5874672,86.3082004 45.5460785,83.0229626 L45.1873855,82.4627524 L45.1873855,82.4627524 L44.8201294,81.9202881 C42.0640869,77.9533691 38.9908133,76.6788646 34.671976,76.0807201 C30.3531387,75.4825756 26.0806274,76.4193726 21.355835,78.8788452 C16.6310425,81.3383179 13.5522311,86.3372192 14.9103394,89.1965332 C16.2684476,92.0558472 20.6469116,93.8982544 25.7546387,93.7260742 C28.2355347,93.6424438 30.3542879,93.1701184 32.0287894,92.650032 L32.6012098,92.4650442 L32.8733344,92.3721038 L32.8733344,92.3721038 L33.3889114,92.1874119 L33.8655899,92.0070811 L34.5059184,91.7520481 L35.5077666,91.3388704 L35.7561646,91.2420654 C37.0772705,90.75 37.6343994,92.3347168 36.6242676,92.8588257 L33.0425862,94.7243691 C33.7114936,98.4838066 34.0459473,102.325277 34.0459473,106.248779 L34.0446707,107.130464 L34.034458,108.940028 L34.0140324,110.811188 L33.9833942,112.743941 L33.9425432,114.738289 L33.8914794,116.794232 L33.5370648,116.799061 C18.0526215,116.799061 5.5,104.246439 5.5,88.7619959 C5.5,84.3966776 5.85409785,79.6298306 6.56229356,74.4614549 C7.13903509,76.6704393 8.36689968,78.2947226 10.2458873,79.3343047 C7.77982931,71.050736 8.74117451,64.8984848 10.7680606,60.1378303 L11.0268002,59.5499429 L11.0268002,59.5499429 L11.2956141,58.9762302 C11.4323687,58.692864 11.5725168,58.414693 11.7154817,58.1415365 L12.0049964,57.601856 L12.0049964,57.601856 L12.3009974,57.0752266 L12.3009974,57.0752266 L12.6368861,56.5039377 L12.9781285,55.9479813 L13.3233102,55.4069145 L13.4969365,55.1418262 L13.4969365,55.1418262 L14.0198353,54.3676778 L14.3683504,53.8686222 L14.8874612,53.1444965 L15.3979354,52.4483913 L16.6806797,50.7177321 L17.1186523,50.1115798 L17.25801,49.9142795 L17.5257152,49.5264723 L17.7775615,49.147354 L18.0121347,48.7764816 L18.2280206,48.4134122 C18.537127,47.8744389 18.7783912,47.3603061 18.9303355,46.864287 C19.0690747,47.8604655 19.0258226,48.9014576 18.8923831,49.9682532 L18.8112054,50.5525864 L18.7154501,51.1413521 L18.6631404,51.4371829 L18.6631404,51.4371829 L18.4934492,52.3294386 L18.1338832,54.1276728 L18.0201868,54.7286364 L17.9150879,55.3292336 C17.3833721,58.5302222 17.3597351,61.6863231 20.1042989,64.3295235 C18.8259876,61.0404784 19.4470629,58.1349296 20.6635589,55.0947857 L20.932875,54.4410774 L20.932875,54.4410774 L21.2276237,53.7592857 L21.5356705,53.0706183 L22.5080351,50.9508201 L22.8377097,50.2221083 L23.1649,49.48025 C24.4103347,46.6096602 25.5314377,43.4216581 25.7281069,39.5983473 C25.8763214,36.7170116 25.118204,34.3625714 24.0691252,32.2713482 L23.8221452,31.7933106 L23.5665157,31.323898 L23.3039175,30.8623902 L23.0360309,30.408067 L22.4911154,29.5180941 L21.4117703,27.7926798 L21.1539219,27.3684863 L20.7829677,26.7346407 L20.5486613,26.3126566 L20.3267126,25.890296 L20.135551,25.5021864 C20.1047456,25.4373939 20.0744857,25.3725399 20.0447982,25.3076128 L19.8737579,24.9170811 C18.700288,22.1106627 18.6849301,19.1264271 21.9718395,15.0456306 Z M15.2125819,30.3947754 C14.0807487,31.8720938 14.7811508,35.6110655 16.618471,38.8306563 L16.7787236,39.1052844 C18.5950596,42.1498074 17.4792171,45.1309933 15.3349019,47.8400044 L14.9971498,48.2545998 C14.939591,48.3233318 14.8814202,48.3918778 14.8226695,48.4602342 C15.2125819,45.0047899 14.6034382,43.4306932 12.3624645,40.3701463 C10.1214908,37.3095995 12.1033107,32.6510754 15.2125819,30.3947754 Z M37.5247007,10.9296875 C40.4360729,12.8130174 43.1848449,16.4249175 42.1230846,20.1826463 C41.7590525,21.4710105 41.1441609,22.3812279 40.5043745,23.1943509 L40.1834529,23.5941224 L40.1834529,23.5941224 L39.864659,23.9855185 L39.864659,23.9855185 L39.5542695,24.3763462 C38.6926671,25.4902594 38.0078516,26.691338 38.1422794,28.7786618 C35.7252912,25.1209698 35.8212111,23.1359947 36.6348461,21.6188072 L36.7654411,21.3889218 L36.7654411,21.3889218 L36.9059083,21.1654427 L36.9059083,21.1654427 L37.0547951,20.9473949 L37.0547951,20.9473949 L37.2106489,20.7338033 L37.2106489,20.7338033 L37.454315,20.4196385 L37.454315,20.4196385 L38.1693503,19.5430453 L38.1693503,19.5430453 L38.3334453,19.3350436 L38.3334453,19.3350436 L38.4932961,19.1239755 L38.4932961,19.1239755 L38.647471,18.9088798 L38.647471,18.9088798 L38.7945384,18.6887956 L38.7945384,18.6887956 L38.9330665,18.4627621 C39.0668476,18.2334335 39.1856723,17.9937394 39.2830979,17.7393554 L39.3731517,17.4799146 C39.8265912,16.0242972 39.5677417,14.0807076 37.5247007,10.9296875 Z M22.1306323,0.466308594 C22.6891744,1.63663504 23.6256246,2.34901178 24.6614663,3.00381682 L25.1455904,3.30340452 L25.1455904,3.30340452 L25.8849306,3.75659136 C27.2855948,4.6324139 28.6730399,5.67312012 29.4244385,7.77404785 C30.0242945,9.45125907 29.4824364,10.7995525 28.6840567,12.1971432 L28.4244422,12.6405675 L28.4244422,12.6405675 L27.8788296,13.5478353 L27.8788296,13.5478353 L27.605221,14.0169725 C26.6123653,15.7609428 25.7752893,17.7845146 26.4681773,20.6748338 C24.0233792,18.3151406 24.0632571,15.9153239 24.5635815,13.6885282 L24.6656245,13.2597533 L24.6656245,13.2597533 L24.7759052,12.8356428 L24.7759052,12.8356428 L25.2341751,11.1927138 L25.2341751,11.1927138 L25.336722,10.7970769 L25.336722,10.7970769 L25.4279376,10.408165 C25.5405547,9.89425171 25.6142578,9.39918758 25.6142578,8.92663574 C25.6142578,7.66903811 25.0398056,6.67517929 24.3559425,5.71337837 L24.0070463,5.2340768 L24.0070463,5.2340768 L23.6528328,4.75368264 C22.7714171,3.54596852 21.9612557,2.26767775 22.1306323,0.466308594 Z" id="Shape" fill="#000000"></path>
        <path d="M95.856,115.216 C96.24,115.216 96.528,115.072 96.72,114.784 C96.912,114.496 97.008,114.16 97.008,113.776 C96.96,113.2 96.84,112.84 96.648,112.696 C96.456,112.552 96.168,112.48 95.784,112.48 L95.784,112.48 L95.352,112.48 C94.104,112.48 93.216,112.264 92.688,111.832 C92.16,111.4 91.848,110.896 91.752,110.32 C91.656,109.744 91.608,108.832 91.608,107.584 L91.608,107.584 L91.608,63.88 C91.608,62.968 91.224,62.512 90.456,62.512 L90.456,62.512 L90.24,62.512 C89.808,62.56 89.256,62.704 88.584,62.944 C86.424,63.76 83.832,64.384 80.808,64.816 C80.424,64.864 80.136,65.02 79.944,65.284 C79.752,65.548 79.656,65.824 79.656,66.112 C79.656,66.736 79.8,67.132 80.088,67.3 C80.376,67.468 80.808,67.552 81.384,67.552 C82.632,67.552 83.52,67.768 84.048,68.2 C84.576,68.632 84.876,69.136 84.948,69.712 C85.02,70.288 85.056,71.2 85.056,72.448 L85.056,107.584 C85.056,108.832 85.008,109.744 84.912,110.32 C84.816,110.896 84.504,111.4 83.976,111.832 C83.448,112.264 82.56,112.48 81.312,112.48 C80.688,112.48 80.268,112.54 80.052,112.66 C79.836,112.78 79.704,113.152 79.656,113.776 C79.656,114.16 79.764,114.496 79.98,114.784 C80.196,115.072 80.472,115.216 80.808,115.216 C83.64,115.072 86.136,115 88.296,115 C90.552,115 93.072,115.072 95.856,115.216 Z M114.44,115.864 C116.312,115.864 117.932,115.612 119.3,115.108 C120.668,114.604 121.784,114.004 122.648,113.308 C123.512,112.612 124.64,111.616 126.032,110.32 L126.032,110.32 L126.176,110.32 L126.176,114.352 C126.176,114.88 126.2,115.252 126.248,115.468 C126.296,115.684 126.488,115.792 126.824,115.792 L126.824,115.792 L138.416,115 C139.232,114.856 139.64,114.448 139.64,113.776 C139.64,112.864 139.232,112.408 138.416,112.408 C134.624,112.408 132.728,110.992 132.728,108.16 L132.728,108.16 L132.728,83.248 C132.728,82.336 132.344,81.88 131.576,81.88 L131.576,81.88 L131.36,81.88 C130.928,81.928 130.376,82.072 129.704,82.312 C127.544,83.128 124.952,83.752 121.928,84.184 C121.544,84.232 121.256,84.388 121.064,84.652 C120.872,84.916 120.776,85.192 120.776,85.48 C120.776,86.104 120.92,86.5 121.208,86.668 C121.496,86.836 121.928,86.92 122.504,86.92 C123.752,86.92 124.64,87.136 125.168,87.568 C125.696,88 125.996,88.504 126.068,89.08 C126.14,89.656 126.176,90.568 126.176,91.816 L126.176,91.816 L126.176,106.936 C125.648,108.04 124.592,109.144 123.008,110.248 C121.424,111.352 119.504,111.904 117.248,111.904 C115.424,111.904 113.816,111.316 112.424,110.14 C111.032,108.964 110.336,107.272 110.336,105.064 L110.336,105.064 L110.336,83.248 C110.336,82.336 109.952,81.88 109.184,81.88 L109.184,81.88 L108.968,81.88 C108.536,81.928 107.984,82.072 107.312,82.312 C105.152,83.128 102.56,83.752 99.536,84.184 C99.152,84.232 98.864,84.388 98.672,84.652 C98.48,84.916 98.384,85.192 98.384,85.48 C98.384,86.104 98.528,86.5 98.816,86.668 C99.104,86.836 99.536,86.92 100.112,86.92 C101.36,86.92 102.248,87.136 102.776,87.568 C103.304,88 103.604,88.504 103.676,89.08 C103.748,89.656 103.784,90.568 103.784,91.816 L103.784,91.816 L103.784,105.136 C103.784,108.352 104.744,110.944 106.664,112.912 C108.584,114.88 111.176,115.864 114.44,115.864 Z M201.424,115.216 C201.76,115.216 202.036,115.072 202.252,114.784 C202.468,114.496 202.576,114.16 202.576,113.776 C202.528,113.2 202.408,112.84 202.216,112.696 C202.024,112.552 201.736,112.48 201.352,112.48 L201.352,112.48 L200.92,112.48 C199.672,112.48 198.784,112.264 198.256,111.832 C197.728,111.4 197.416,110.896 197.32,110.32 C197.224,109.744 197.176,108.832 197.176,107.584 L197.176,107.584 L197.176,92.248 C197.176,89.032 196.216,86.44 194.296,84.472 C192.376,82.504 189.784,81.52 186.52,81.52 C183.832,81.52 181.636,82 179.932,82.96 C178.228,83.92 176.44,85.288 174.568,87.064 L174.568,87.064 L174.424,87.064 C173.608,85.336 172.36,83.98 170.68,82.996 C169,82.012 167.008,81.52 164.704,81.52 C162.832,81.52 161.164,81.808 159.7,82.384 C158.236,82.96 156.928,83.812 155.776,84.94 C154.84,85.8565 154.189188,86.4957344 153.823562,86.8577031 L153.616,87.064 L153.4,87.064 L153.4,82.528 C153.4,81.616 153.016,81.16 152.248,81.16 L152.248,81.16 L152.032,81.16 C151.744,81.208 151.192,81.352 150.376,81.592 C148.36,82.36 145.792,82.984 142.672,83.464 C142.288,83.512 142,83.668 141.808,83.932 C141.616,84.196 141.52,84.472 141.52,84.76 C141.52,85.384 141.664,85.78 141.952,85.948 C142.24,86.116 142.672,86.2 143.248,86.2 C144.496,86.2 145.384,86.416 145.912,86.848 C146.44,87.28 146.74,87.784 146.812,88.36 C146.884,88.936 146.92,89.848 146.92,91.096 L146.92,91.096 L146.92,107.584 C146.92,108.832 146.872,109.744 146.776,110.32 C146.68,110.896 146.368,111.4 145.84,111.832 C145.312,112.264 144.424,112.48 143.176,112.48 C142.552,112.48 142.132,112.54 141.916,112.66 C141.7,112.78 141.568,113.152 141.52,113.776 C141.52,114.16 141.628,114.496 141.844,114.784 C142.06,115.072 142.336,115.216 142.672,115.216 C145.504,115.072 148,115 150.16,115 C152.416,115 154.936,115.072 157.72,115.216 C158.104,115.216 158.392,115.072 158.584,114.784 C158.776,114.496 158.872,114.16 158.872,113.776 C158.824,113.2 158.704,112.84 158.512,112.696 C158.32,112.552 158.032,112.48 157.648,112.48 L157.648,112.48 L157.216,112.48 C155.968,112.48 155.08,112.264 154.552,111.832 C154.024,111.4 153.712,110.896 153.616,110.32 C153.52,109.744 153.472,108.832 153.472,107.584 L153.472,107.584 L153.472,90.448 C154.096,89.248 155.104,88.12 156.496,87.064 C157.888,86.008 159.688,85.48 161.896,85.48 C163.72,85.48 165.316,86.068 166.684,87.244 C168.052,88.42 168.736,90.112 168.736,92.32 L168.736,92.32 L168.73636,107.67868 C168.73852,107.98756 168.7504,108.52 168.772,109.276 C168.796,110.116 168.616,110.86 168.232,111.508 C167.848,112.156 166.864,112.48 165.28,112.48 C164.656,112.48 164.236,112.54 164.02,112.66 C163.804,112.78 163.672,113.152 163.624,113.776 C163.624,114.16 163.72,114.496 163.912,114.784 C164.104,115.072 164.392,115.216 164.776,115.216 C167.608,115.072 170.008,115 171.976,115 C174.04,115 176.488,115.072 179.32,115.216 C179.704,115.216 179.992,115.072 180.184,114.784 C180.376,114.496 180.472,114.16 180.472,113.776 C180.424,113.2 180.316,112.84 180.148,112.696 C179.98,112.552 179.68,112.48 179.248,112.48 L179.248,112.48 L178.816,112.48 C177.568,112.48 176.668,112.24 176.116,111.76 C175.564,111.28 175.3,110.536 175.324,109.528 C175.348,108.52 175.36,107.872 175.36,107.584 L175.36,107.584 L175.36,90.448 C175.936,89.248 176.92,88.12 178.312,87.064 C179.704,86.008 181.504,85.48 183.712,85.48 C185.536,85.48 187.144,86.068 188.536,87.244 C189.928,88.42 190.624,90.112 190.624,92.32 L190.624,92.32 L190.624,107.584 C190.624,108.832 190.576,109.744 190.48,110.32 C190.384,110.896 190.072,111.4 189.544,111.832 C189.016,112.264 188.128,112.48 186.88,112.48 C186.256,112.48 185.836,112.54 185.62,112.66 C185.404,112.78 185.272,113.152 185.224,113.776 C185.224,114.16 185.32,114.496 185.512,114.784 C185.704,115.072 185.992,115.216 186.376,115.216 C189.208,115.072 191.704,115 193.864,115 C196.12,115 198.64,115.072 201.424,115.216 Z M222.096,115.864 C224.976,115.864 227.556,115.204 229.836,113.884 C232.116,112.564 234,110.704 235.488,108.304 C235.584,108.16 235.632,107.944 235.632,107.656 C235.632,107.08 235.392,106.648 234.912,106.36 C234.672,106.168 234.384,106.072 234.048,106.072 C233.808,106.072 233.568,106.192 233.328,106.432 C232.032,108.544 230.664,110.044 229.224,110.932 C227.784,111.82 226.032,112.264 223.968,112.264 C220.08,112.264 217.212,110.956 215.364,108.34 C213.516,105.724 212.592,102.184 212.592,97.72 L212.592,97.72 L230.088,97.72 C231.72,97.72 232.968,97.432 233.832,96.856 C234.696,96.28 235.128,95.2 235.128,93.616 C234.792,89.92 233.472,86.98 231.168,84.796 C228.864,82.612 225.576,81.52 221.304,81.52 C218.136,81.52 215.328,82.336 212.88,83.968 C210.432,85.6 208.548,87.724 207.228,90.34 C205.908,92.956 205.248,95.68 205.248,98.512 C205.248,101.728 205.896,104.656 207.192,107.296 C208.488,109.936 210.396,112.024 212.916,113.56 C215.436,115.096 218.496,115.864 222.096,115.864 Z M224.328,94.984 L212.592,94.984 C212.784,91.576 213.672,88.9 215.256,86.956 C216.84,85.012 218.856,84.04 221.304,84.04 C223.512,84.04 225.216,84.808 226.416,86.344 C227.616,87.88 228.216,89.752 228.216,91.96 C228.072,93.976 226.776,94.984 224.328,94.984 L224.328,94.984 Z" fill="#000000" fill-rule="nonzero"></path>
        <path d="M83.899858,140.198153 C84.9481534,140.198153 85.8419744,140.035156 86.581321,139.709162 C87.3206676,139.383168 87.8863636,138.929332 88.2784091,138.347656 C88.6704545,137.76598 88.8664773,137.091619 88.8664773,136.324574 C88.8664773,135.757812 88.7599432,135.263494 88.546875,134.841619 C88.3338068,134.419744 88.0450994,134.059659 87.6807528,133.761364 C87.3164062,133.463068 86.9051847,133.215909 86.4470881,133.019886 C85.9889915,132.823864 85.5127841,132.668324 85.0184659,132.553267 L85.0184659,132.553267 L83.7911932,132.246449 C83.5227273,132.182528 83.256392,132.103693 82.9921875,132.009943 C82.727983,131.916193 82.4872159,131.800071 82.2698864,131.661577 C82.0525568,131.523082 81.8810369,131.353693 81.7553267,131.153409 C81.6296165,130.953125 81.5667614,130.716619 81.5667614,130.443892 C81.5710227,130.115767 81.6669034,129.823864 81.8544034,129.568182 C82.0419034,129.3125 82.3125,129.110085 82.6661932,128.960938 C83.0198864,128.81179 83.443892,128.737216 83.9382102,128.737216 C84.6413352,128.737216 85.2134233,128.892756 85.6544744,129.203835 C86.0955256,129.514915 86.3458807,129.949574 86.4055398,130.507812 L86.4055398,130.507812 L88.6875,130.507812 C88.6747159,129.770597 88.4680398,129.117543 88.0674716,128.548651 C87.6669034,127.979759 87.1161222,127.534446 86.4151278,127.212713 C85.7141335,126.89098 84.8991477,126.730114 83.9701705,126.730114 C83.0539773,126.730114 82.2336648,126.89098 81.509233,127.212713 C80.7848011,127.534446 80.2127131,127.985085 79.7929688,128.564631 C79.3732244,129.144176 79.1633523,129.819602 79.1633523,130.590909 C79.1633523,131.528409 79.4754972,132.279474 80.0997869,132.844105 C80.7240767,133.408736 81.5752841,133.829545 82.6534091,134.106534 L82.6534091,134.106534 L84.1427557,134.490057 C84.6115057,134.609375 85.0216619,134.744673 85.3732244,134.895952 C85.7247869,135.04723 85.9985795,135.23473 86.1946023,135.458452 C86.390625,135.682173 86.490767,135.964489 86.4950284,136.305398 C86.490767,136.680398 86.3778409,137.007457 86.15625,137.286577 C85.9346591,137.565696 85.6289062,137.783026 85.2389915,137.938565 C84.8490767,138.094105 84.3963068,138.171875 83.8806818,138.171875 C83.3863636,138.171875 82.9399858,138.097301 82.5415483,137.948153 C82.1431108,137.799006 81.8203125,137.573153 81.5731534,137.270597 C81.3259943,136.96804 81.1853693,136.588778 81.1512784,136.132812 L81.1512784,136.132812 L78.8181818,136.132812 C78.8522727,137.002131 79.0791903,137.739347 79.4989347,138.34446 C79.918679,138.949574 80.5024858,139.409801 81.2503551,139.725142 C81.9982244,140.040483 82.881392,140.198153 83.899858,140.198153 Z M93.8488955,140.135081 L94.09375,140.134233 C94.421875,140.12571 94.699929,140.095881 94.9279119,140.044744 C95.1558949,139.993608 95.3316761,139.946733 95.4552557,139.904119 L95.4552557,139.904119 L95.0653409,138.09517 C95.0014205,138.112216 94.9087358,138.131392 94.7872869,138.152699 C94.6658381,138.174006 94.5326705,138.184659 94.3877841,138.184659 C94.1960227,138.184659 94.0213068,138.15483 93.8636364,138.09517 C93.7059659,138.035511 93.5791903,137.923651 93.4833097,137.759588 C93.387429,137.595526 93.3394886,137.357955 93.3394886,137.046875 L93.3394886,137.046875 L93.339,131.972 L95.2762784,131.971591 L95.2762784,130.181818 L93.339,130.182 L93.3394886,127.829545 L91.0255682,127.829545 L91.025,130.182 L89.6321023,130.181818 L89.6321023,131.971591 L91.025,131.972 L91.0255682,137.430398 C91.0218395,137.96733 91.1233299,138.425959 91.3300393,138.806286 L91.425071,138.964489 C91.6956676,139.37358 92.0632102,139.675071 92.5276989,139.868963 C92.9921875,140.062855 93.5142045,140.151278 94.09375,140.134233 L93.8488955,140.135081 Z M99.5383523,140.198153 C100.049716,140.198153 100.496094,140.126776 100.877486,139.98402 C101.258878,139.841264 101.576349,139.651634 101.829901,139.415128 C102.083452,139.178622 102.28054,138.924006 102.421165,138.651278 L102.421165,138.651278 L102.497869,138.651278 L102.497869,140 L104.722301,140 L104.722301,133.428977 C104.722301,132.776989 104.604048,132.233665 104.367543,131.799006 C104.131037,131.364347 103.818892,131.020241 103.431108,130.76669 C103.043324,130.513139 102.615057,130.330966 102.146307,130.22017 C101.677557,130.109375 101.206676,130.053977 100.733665,130.053977 C100.047585,130.053977 99.4211648,130.155185 98.8544034,130.357599 C98.287642,130.560014 97.8082386,130.862571 97.4161932,131.26527 C97.0241477,131.667969 96.7428977,132.167614 96.5724432,132.764205 L96.5724432,132.764205 L98.7329545,133.071023 C98.8480114,132.734375 99.0706676,132.442472 99.4009233,132.195312 C99.731179,131.948153 100.179688,131.824574 100.746449,131.824574 C101.283381,131.824574 101.694602,131.956676 101.980114,132.220881 C102.265625,132.485085 102.408381,132.857955 102.408381,133.339489 L102.408381,133.339489 L102.408381,133.377841 C102.408381,133.599432 102.326349,133.762429 102.162287,133.866832 C101.998224,133.971236 101.737216,134.04794 101.379261,134.096946 C101.021307,134.145952 100.554688,134.200284 99.9794034,134.259943 C99.5021307,134.31108 99.0408381,134.393111 98.5955256,134.506037 C98.1502131,134.618963 97.7507102,134.784091 97.397017,135.00142 C97.0433239,135.21875 96.7642045,135.508523 96.5596591,135.870739 C96.3551136,136.232955 96.2528409,136.691051 96.2528409,137.245028 C96.2528409,137.888494 96.3966619,138.429688 96.684304,138.868608 C96.971946,139.307528 97.3639915,139.638849 97.8604403,139.862571 C98.3568892,140.086293 98.9161932,140.198153 99.5383523,140.198153 Z M100.139205,138.497869 C99.6576705,138.497869 99.2613636,138.389205 98.9502841,138.171875 C98.6392045,137.954545 98.4836648,137.632812 98.4836648,137.206676 C98.4836648,136.908381 98.5625,136.664418 98.7201705,136.474787 C98.8778409,136.285156 99.0930398,136.137074 99.365767,136.03054 C99.6384943,135.924006 99.9474432,135.847301 100.292614,135.800426 C100.446023,135.779119 100.627131,135.753551 100.835938,135.723722 C101.044744,135.693892 101.255682,135.659801 101.46875,135.621449 C101.681818,135.583097 101.874645,135.538352 102.04723,135.487216 C102.219815,135.43608 102.34233,135.380682 102.414773,135.321023 L102.414773,135.321023 L102.414773,136.477983 C102.414773,136.840199 102.322088,137.174716 102.136719,137.481534 C101.951349,137.788352 101.68821,138.034446 101.347301,138.219815 C101.006392,138.405185 100.603693,138.497869 100.139205,138.497869 Z M110.030714,140.135081 L110.275568,140.134233 C110.603693,140.12571 110.881747,140.095881 111.10973,140.044744 C111.337713,139.993608 111.513494,139.946733 111.637074,139.904119 L111.637074,139.904119 L111.247159,138.09517 C111.183239,138.112216 111.090554,138.131392 110.969105,138.152699 C110.847656,138.174006 110.714489,138.184659 110.569602,138.184659 C110.377841,138.184659 110.203125,138.15483 110.045455,138.09517 C109.887784,138.035511 109.761009,137.923651 109.665128,137.759588 C109.569247,137.595526 109.521307,137.357955 109.521307,137.046875 L109.521307,137.046875 L109.521,131.972 L111.458097,131.971591 L111.458097,130.181818 L109.521,130.182 L109.521307,127.829545 L107.207386,127.829545 L107.207,130.182 L105.81392,130.181818 L105.81392,131.971591 L107.207,131.972 L107.207386,137.430398 C107.203658,137.96733 107.305148,138.425959 107.511857,138.806286 L107.606889,138.964489 C107.877486,139.37358 108.245028,139.675071 108.709517,139.868963 C109.174006,140.062855 109.696023,140.151278 110.275568,140.134233 L110.030714,140.135081 Z M114.058239,128.788352 C114.424716,128.788352 114.738991,128.665838 115.001065,128.42081 C115.263139,128.175781 115.394176,127.880682 115.394176,127.535511 C115.394176,127.18608 115.263139,126.888849 115.001065,126.643821 C114.738991,126.398793 114.424716,126.276278 114.058239,126.276278 C113.691761,126.276278 113.37642,126.398793 113.112216,126.643821 C112.848011,126.888849 112.715909,127.18608 112.715909,127.535511 C112.715909,127.880682 112.846946,128.175781 113.10902,128.42081 C113.371094,128.665838 113.6875,128.788352 114.058239,128.788352 Z M115.208807,140 L115.208807,130.181818 L112.894886,130.181818 L112.894886,140 L115.208807,140 Z M121.369318,140.191761 C122.191761,140.191761 122.90767,140.041548 123.517045,139.741122 C124.12642,139.440696 124.607955,139.023082 124.961648,138.488281 C125.315341,137.95348 125.519886,137.338778 125.575284,136.644176 L125.575284,136.644176 L123.363636,136.644176 C123.295455,136.997869 123.169744,137.298295 122.986506,137.545455 C122.803267,137.792614 122.576349,137.981179 122.305753,138.111151 C122.035156,138.241122 121.729403,138.306108 121.388494,138.306108 C120.90696,138.306108 120.488281,138.177202 120.132457,137.919389 C119.776634,137.661577 119.50071,137.292969 119.304688,136.813565 C119.108665,136.334162 119.010653,135.759943 119.010653,135.090909 C119.010653,134.430398 119.10973,133.863636 119.307884,133.390625 C119.506037,132.917614 119.784091,132.554332 120.142045,132.300781 C120.5,132.04723 120.915483,131.920455 121.388494,131.920455 C121.946733,131.920455 122.393111,132.07919 122.727628,132.396662 C123.062145,132.714134 123.274148,133.109375 123.363636,133.582386 L123.363636,133.582386 L125.575284,133.582386 C125.524148,132.875 125.315341,132.256037 124.948864,131.725497 C124.582386,131.194957 124.091264,130.783736 123.475497,130.491832 C122.85973,130.199929 122.153409,130.053977 121.356534,130.053977 C120.397727,130.053977 119.567827,130.268111 118.866832,130.696378 C118.165838,131.124645 117.62358,131.721236 117.240057,132.486151 C116.856534,133.251065 116.664773,134.132102 116.664773,135.129261 C116.664773,136.122159 116.853338,136.998935 117.230469,137.759588 C117.607599,138.520241 118.146662,139.115767 118.847656,139.546165 C119.548651,139.976562 120.389205,140.191761 121.369318,140.191761 Z M134.725852,140.191761 C135.544034,140.191761 136.268466,140.059659 136.899148,139.795455 C137.52983,139.53125 138.023082,139.163707 138.378906,138.692827 C138.73473,138.221946 138.914773,137.677557 138.919034,137.059659 C138.914773,136.356534 138.685724,135.787642 138.231889,135.352983 C137.778054,134.918324 137.086648,134.600852 136.15767,134.400568 L136.15767,134.400568 L134.482955,134.042614 C133.984375,133.927557 133.627486,133.78054 133.412287,133.601562 C133.197088,133.422585 133.091619,133.190341 133.095881,132.90483 C133.091619,132.572443 133.252486,132.301847 133.57848,132.09304 C133.904474,131.884233 134.308239,131.77983 134.789773,131.77983 C135.147727,131.77983 135.450284,131.837358 135.697443,131.952415 C135.944602,132.067472 136.14169,132.21875 136.288707,132.40625 C136.435724,132.59375 136.539062,132.794034 136.598722,133.007102 L136.598722,133.007102 L138.708097,132.776989 C138.550426,131.941761 138.14027,131.279119 137.477628,130.789062 C136.814986,130.299006 135.908381,130.053977 134.757812,130.053977 C133.973722,130.053977 133.282315,130.176491 132.683594,130.42152 C132.084872,130.666548 131.618253,131.011719 131.283736,131.457031 C130.949219,131.902344 130.784091,132.427557 130.788352,133.03267 C130.784091,133.74858 131.007813,134.339844 131.459517,134.806463 C131.911222,135.273082 132.607955,135.604403 133.549716,135.800426 L133.549716,135.800426 L135.224432,136.151989 C135.676136,136.25 136.009588,136.390625 136.224787,136.573864 C136.439986,136.757102 136.547585,136.989347 136.547585,137.270597 C136.547585,137.602983 136.380327,137.882102 136.04581,138.107955 C135.711293,138.333807 135.269176,138.446733 134.71946,138.446733 C134.18679,138.446733 133.754261,138.333807 133.421875,138.107955 C133.089489,137.882102 132.872159,137.547585 132.769886,137.104403 L132.769886,137.104403 L130.513494,137.321733 C130.654119,138.225142 131.090909,138.929332 131.823864,139.434304 C132.556818,139.939276 133.524148,140.191761 134.725852,140.191761 Z M141.493608,128.788352 C141.860085,128.788352 142.174361,128.665838 142.436435,128.42081 C142.698509,128.175781 142.829545,127.880682 142.829545,127.535511 C142.829545,127.18608 142.698509,126.888849 142.436435,126.643821 C142.174361,126.398793 141.860085,126.276278 141.493608,126.276278 C141.127131,126.276278 140.81179,126.398793 140.547585,126.643821 C140.283381,126.888849 140.151278,127.18608 140.151278,127.535511 C140.151278,127.880682 140.282315,128.175781 140.544389,128.42081 C140.806463,128.665838 141.122869,128.788352 141.493608,128.788352 Z M142.644176,140 L142.644176,130.181818 L140.330256,130.181818 L140.330256,140 L142.644176,140 Z M147.997333,140.135081 L148.242188,140.134233 C148.570312,140.12571 148.848366,140.095881 149.076349,140.044744 C149.304332,139.993608 149.480114,139.946733 149.603693,139.904119 L149.603693,139.904119 L149.213778,138.09517 C149.149858,138.112216 149.057173,138.131392 148.935724,138.152699 C148.814276,138.174006 148.681108,138.184659 148.536222,138.184659 C148.34446,138.184659 148.169744,138.15483 148.012074,138.09517 C147.854403,138.035511 147.727628,137.923651 147.631747,137.759588 C147.535866,137.595526 147.487926,137.357955 147.487926,137.046875 L147.487926,137.046875 L147.487,131.972 L149.424716,131.971591 L149.424716,130.181818 L147.487,130.182 L147.487926,127.829545 L145.174006,127.829545 L145.174,130.182 L143.78054,130.181818 L143.78054,131.971591 L145.174,131.972 L145.174006,137.430398 C145.170277,137.96733 145.271767,138.425959 145.478477,138.806286 L145.573509,138.964489 C145.844105,139.37358 146.211648,139.675071 146.676136,139.868963 C147.140625,140.062855 147.662642,140.151278 148.242188,140.134233 L147.997333,140.135081 Z M155.105824,140.191761 C155.868608,140.191761 156.546165,140.075639 157.138494,139.843395 C157.730824,139.611151 158.217685,139.283026 158.599077,138.85902 C158.980469,138.435014 159.239347,137.9375 159.37571,137.366477 L159.37571,137.366477 L157.215199,137.12358 C157.112926,137.400568 156.961648,137.632812 156.761364,137.820312 C156.56108,138.007812 156.324574,138.149503 156.051847,138.245384 C155.779119,138.341264 155.474432,138.389205 155.137784,138.389205 C154.634943,138.389205 154.196023,138.281605 153.821023,138.066406 C153.446023,137.851207 153.154119,137.540128 152.945312,137.133168 C152.736506,136.726207 152.632102,136.237216 152.632102,135.666193 L152.633,135.724 L159.471591,135.723722 L159.471591,135.014205 C159.471591,134.153409 159.352273,133.410866 159.113636,132.786577 C158.875,132.162287 158.54794,131.647727 158.132457,131.242898 C157.716974,130.838068 157.239702,130.538707 156.700639,130.344815 C156.161577,130.150923 155.589489,130.053977 154.984375,130.053977 C154.046875,130.053977 153.230824,130.268111 152.536222,130.696378 C151.841619,131.124645 151.301491,131.721236 150.915838,132.486151 C150.530185,133.251065 150.337358,134.138494 150.337358,135.148438 C150.337358,136.175426 150.529119,137.067116 150.912642,137.823509 C151.296165,138.579901 151.844815,139.163707 152.558594,139.574929 C153.272372,139.986151 154.121449,140.191761 155.105824,140.191761 Z M152.642312,134.088157 C152.672792,133.732156 152.770597,133.400568 152.935724,133.093395 C153.133878,132.724787 153.411932,132.426491 153.769886,132.198509 C154.127841,131.970526 154.543324,131.856534 155.016335,131.856534 C155.459517,131.856534 155.848366,131.956676 156.182884,132.15696 C156.517401,132.357244 156.778409,132.631037 156.965909,132.978338 C157.153409,133.325639 157.24929,133.720881 157.253551,134.164062 L157.253551,134.164062 L152.638,134.165 L152.642312,134.088157 Z M169.165483,143.848011 C170.047585,143.848011 170.835938,143.712713 171.53054,143.442116 C172.225142,143.17152 172.772727,142.762429 173.173295,142.214844 C173.573864,141.667259 173.774148,140.982244 173.774148,140.159801 L173.774148,140.159801 L173.774148,130.181818 L171.492188,130.181818 L171.492188,131.805398 L171.364347,131.805398 C171.24929,131.566761 171.080966,131.312145 170.859375,131.041548 C170.637784,130.770952 170.340554,130.538707 169.967685,130.344815 C169.594815,130.150923 169.120739,130.053977 168.545455,130.053977 C167.791193,130.053977 167.107244,130.246804 166.493608,130.632457 C165.879972,131.018111 165.393111,131.582741 165.033026,132.326349 C164.67294,133.069957 164.492898,133.980824 164.492898,135.058949 C164.492898,136.128551 164.67294,137.018111 165.033026,137.727628 C165.393111,138.437145 165.878906,138.969815 166.490412,139.325639 C167.101918,139.681463 167.784801,139.859375 168.539062,139.859375 C169.101562,139.859375 169.569247,139.774148 169.942116,139.603693 C170.314986,139.433239 170.615412,139.222301 170.843395,138.970881 C171.071378,138.71946 171.245028,138.474432 171.364347,138.235795 L171.364347,138.235795 L171.479403,138.235795 L171.479403,140.095881 C171.479403,140.799006 171.264205,141.308239 170.833807,141.62358 C170.403409,141.93892 169.860085,142.096591 169.203835,142.096591 C168.739347,142.096591 168.354759,142.033736 168.050071,141.908026 C167.745384,141.782315 167.503551,141.626776 167.324574,141.441406 C167.145597,141.256037 167.009233,141.075994 166.915483,140.901278 L166.915483,140.901278 L164.831676,141.40625 C164.972301,141.849432 165.223722,142.256392 165.585938,142.627131 C165.948153,142.997869 166.427557,143.294034 167.024148,143.515625 C167.620739,143.737216 168.334517,143.848011 169.165483,143.848011 Z M169.184659,138.044034 C168.677557,138.044034 168.250355,137.919389 167.903054,137.670099 C167.555753,137.42081 167.293679,137.071378 167.116832,136.621804 C166.939986,136.17223 166.851562,135.647017 166.851562,135.046165 C166.851562,134.453835 166.93892,133.924361 167.113636,133.457741 C167.288352,132.991122 167.548295,132.62358 167.893466,132.355114 C168.238636,132.086648 168.669034,131.952415 169.184659,131.952415 C169.683239,131.952415 170.104048,132.081321 170.447088,132.339134 C170.790128,132.596946 171.050071,132.958097 171.226918,133.422585 C171.403764,133.887074 171.492188,134.428267 171.492188,135.046165 C171.492188,135.672585 171.402699,136.209517 171.223722,136.65696 C171.044744,137.104403 170.78267,137.447443 170.4375,137.68608 C170.09233,137.924716 169.674716,138.044034 169.184659,138.044034 Z M179.99858,140.191761 C180.761364,140.191761 181.43892,140.075639 182.03125,139.843395 C182.62358,139.611151 183.11044,139.283026 183.491832,138.85902 C183.873224,138.435014 184.132102,137.9375 184.268466,137.366477 L184.268466,137.366477 L182.107955,137.12358 C182.005682,137.400568 181.854403,137.632812 181.654119,137.820312 C181.453835,138.007812 181.21733,138.149503 180.944602,138.245384 C180.671875,138.341264 180.367188,138.389205 180.03054,138.389205 C179.527699,138.389205 179.088778,138.281605 178.713778,138.066406 C178.338778,137.851207 178.046875,137.540128 177.838068,137.133168 C177.629261,136.726207 177.524858,136.237216 177.524858,135.666193 L177.526,135.724 L184.364347,135.723722 L184.364347,135.014205 C184.364347,134.153409 184.245028,133.410866 184.006392,132.786577 C183.767756,132.162287 183.440696,131.647727 183.025213,131.242898 C182.60973,130.838068 182.132457,130.538707 181.593395,130.344815 C181.054332,130.150923 180.482244,130.053977 179.877131,130.053977 C178.939631,130.053977 178.12358,130.268111 177.428977,130.696378 C176.734375,131.124645 176.194247,131.721236 175.808594,132.486151 C175.42294,133.251065 175.230114,134.138494 175.230114,135.148438 C175.230114,136.175426 175.421875,137.067116 175.805398,137.823509 C176.18892,138.579901 176.737571,139.163707 177.451349,139.574929 C178.165128,139.986151 179.014205,140.191761 179.99858,140.191761 Z M177.535067,134.088157 C177.565548,133.732156 177.663352,133.400568 177.82848,133.093395 C178.026634,132.724787 178.304688,132.426491 178.662642,132.198509 C179.020597,131.970526 179.43608,131.856534 179.909091,131.856534 C180.352273,131.856534 180.741122,131.956676 181.075639,132.15696 C181.410156,132.357244 181.671165,132.631037 181.858665,132.978338 C182.046165,133.325639 182.142045,133.720881 182.146307,134.164062 L182.146307,134.164062 L177.531,134.165 L177.535067,134.088157 Z M188.134233,140 L188.134233,134.247159 C188.134233,133.774148 188.222656,133.371449 188.399503,133.039062 C188.576349,132.706676 188.821378,132.45206 189.134588,132.275213 C189.447798,132.098366 189.806818,132.009943 190.211648,132.009943 C190.808239,132.009943 191.275923,132.195312 191.614702,132.566051 C191.95348,132.93679 192.122869,133.450284 192.122869,134.106534 L192.122869,134.106534 L192.122869,140 L194.43679,140 L194.43679,133.74858 C194.441051,132.964489 194.303622,132.297585 194.024503,131.747869 C193.745384,131.198153 193.353338,130.778409 192.848366,130.488636 C192.343395,130.198864 191.752131,130.053977 191.074574,130.053977 C190.341619,130.053977 189.726918,130.215909 189.230469,130.539773 C188.73402,130.863636 188.372869,131.300426 188.147017,131.850142 L188.147017,131.850142 L188.03196,131.850142 L188.03196,130.181818 L185.820313,130.181818 L185.820313,140 L188.134233,140 Z M200.642045,140.191761 C201.40483,140.191761 202.082386,140.075639 202.674716,139.843395 C203.267045,139.611151 203.753906,139.283026 204.135298,138.85902 C204.51669,138.435014 204.775568,137.9375 204.911932,137.366477 L204.911932,137.366477 L202.75142,137.12358 C202.649148,137.400568 202.497869,137.632812 202.297585,137.820312 C202.097301,138.007812 201.860795,138.149503 201.588068,138.245384 C201.315341,138.341264 201.010653,138.389205 200.674006,138.389205 C200.171165,138.389205 199.732244,138.281605 199.357244,138.066406 C198.982244,137.851207 198.690341,137.540128 198.481534,137.133168 C198.272727,136.726207 198.168324,136.237216 198.168324,135.666193 L198.169,135.724 L205.007812,135.723722 L205.007812,135.014205 C205.007812,134.153409 204.888494,133.410866 204.649858,132.786577 C204.411222,132.162287 204.084162,131.647727 203.668679,131.242898 C203.253196,130.838068 202.775923,130.538707 202.236861,130.344815 C201.697798,130.150923 201.12571,130.053977 200.520597,130.053977 C199.583097,130.053977 198.767045,130.268111 198.072443,130.696378 C197.377841,131.124645 196.837713,131.721236 196.45206,132.486151 C196.066406,133.251065 195.87358,134.138494 195.87358,135.148438 C195.87358,136.175426 196.065341,137.067116 196.448864,137.823509 C196.832386,138.579901 197.381037,139.163707 198.094815,139.574929 C198.808594,139.986151 199.65767,140.191761 200.642045,140.191761 Z M198.178533,134.088157 C198.209014,133.732156 198.306818,133.400568 198.471946,133.093395 C198.670099,132.724787 198.948153,132.426491 199.306108,132.198509 C199.664063,131.970526 200.079545,131.856534 200.552557,131.856534 C200.995739,131.856534 201.384588,131.956676 201.719105,132.15696 C202.053622,132.357244 202.314631,132.631037 202.502131,132.978338 C202.689631,133.325639 202.785511,133.720881 202.789773,134.164062 L202.789773,134.164062 L198.174,134.165 L198.178533,134.088157 Z M208.777699,140 L208.777699,134.227983 C208.777699,133.810369 208.87358,133.441761 209.065341,133.122159 C209.257102,132.802557 209.520241,132.552202 209.854759,132.371094 C210.189276,132.189986 210.567472,132.099432 210.989347,132.099432 C211.185369,132.099432 211.388849,132.113281 211.599787,132.14098 C211.810724,132.168679 211.965199,132.199574 212.06321,132.233665 L212.06321,132.233665 L212.06321,130.105114 C211.956676,130.083807 211.823509,130.067827 211.663707,130.057173 C211.503906,130.04652 211.360085,130.041193 211.232244,130.041193 C210.669744,130.041193 210.170099,130.195668 209.73331,130.504616 C209.29652,130.813565 208.988636,131.25142 208.809659,131.818182 L208.809659,131.818182 L208.707386,131.818182 L208.707386,130.181818 L206.463778,130.181818 L206.463778,140 L208.777699,140 Z M215.743608,140.198153 C216.254972,140.198153 216.701349,140.126776 217.082741,139.98402 C217.464134,139.841264 217.781605,139.651634 218.035156,139.415128 C218.288707,139.178622 218.485795,138.924006 218.62642,138.651278 L218.62642,138.651278 L218.703125,138.651278 L218.703125,140 L220.927557,140 L220.927557,133.428977 C220.927557,132.776989 220.809304,132.233665 220.572798,131.799006 C220.336293,131.364347 220.024148,131.020241 219.636364,130.76669 C219.24858,130.513139 218.820312,130.330966 218.351562,130.22017 C217.882812,130.109375 217.411932,130.053977 216.93892,130.053977 C216.252841,130.053977 215.62642,130.155185 215.059659,130.357599 C214.492898,130.560014 214.013494,130.862571 213.621449,131.26527 C213.229403,131.667969 212.948153,132.167614 212.777699,132.764205 L212.777699,132.764205 L214.93821,133.071023 C215.053267,132.734375 215.275923,132.442472 215.606179,132.195312 C215.936435,131.948153 216.384943,131.824574 216.951705,131.824574 C217.488636,131.824574 217.899858,131.956676 218.185369,132.220881 C218.470881,132.485085 218.613636,132.857955 218.613636,133.339489 L218.613636,133.339489 L218.613636,133.377841 C218.613636,133.599432 218.531605,133.762429 218.367543,133.866832 C218.20348,133.971236 217.942472,134.04794 217.584517,134.096946 C217.226563,134.145952 216.759943,134.200284 216.184659,134.259943 C215.707386,134.31108 215.246094,134.393111 214.800781,134.506037 C214.355469,134.618963 213.955966,134.784091 213.602273,135.00142 C213.24858,135.21875 212.96946,135.508523 212.764915,135.870739 C212.560369,136.232955 212.458097,136.691051 212.458097,137.245028 C212.458097,137.888494 212.601918,138.429688 212.88956,138.868608 C213.177202,139.307528 213.569247,139.638849 214.065696,139.862571 C214.562145,140.086293 215.121449,140.198153 215.743608,140.198153 Z M216.34446,138.497869 C215.862926,138.497869 215.466619,138.389205 215.15554,138.171875 C214.84446,137.954545 214.68892,137.632812 214.68892,137.206676 C214.68892,136.908381 214.767756,136.664418 214.925426,136.474787 C215.083097,136.285156 215.298295,136.137074 215.571023,136.03054 C215.84375,135.924006 216.152699,135.847301 216.497869,135.800426 C216.651278,135.779119 216.832386,135.753551 217.041193,135.723722 C217.25,135.693892 217.460938,135.659801 217.674006,135.621449 C217.887074,135.583097 218.079901,135.538352 218.252486,135.487216 C218.425071,135.43608 218.547585,135.380682 218.620028,135.321023 L218.620028,135.321023 L218.620028,136.477983 C218.620028,136.840199 218.527344,137.174716 218.341974,137.481534 C218.156605,137.788352 217.893466,138.034446 217.552557,138.219815 C217.211648,138.405185 216.808949,138.497869 216.34446,138.497869 Z M226.235969,140.135081 L226.480824,140.134233 C226.808949,140.12571 227.087003,140.095881 227.314986,140.044744 C227.542969,139.993608 227.71875,139.946733 227.84233,139.904119 L227.84233,139.904119 L227.452415,138.09517 C227.388494,138.112216 227.29581,138.131392 227.174361,138.152699 C227.052912,138.174006 226.919744,138.184659 226.774858,138.184659 C226.583097,138.184659 226.408381,138.15483 226.25071,138.09517 C226.09304,138.035511 225.966264,137.923651 225.870384,137.759588 C225.774503,137.595526 225.726562,137.357955 225.726562,137.046875 L225.726562,137.046875 L225.726,131.972 L227.663352,131.971591 L227.663352,130.181818 L225.726,130.182 L225.726562,127.829545 L223.412642,127.829545 L223.412,130.182 L222.019176,130.181818 L222.019176,131.971591 L223.412,131.972 L223.412642,137.430398 C223.408913,137.96733 223.510404,138.425959 223.717113,138.806286 L223.812145,138.964489 C224.082741,139.37358 224.450284,139.675071 224.914773,139.868963 C225.379261,140.062855 225.901278,140.151278 226.480824,140.134233 L226.235969,140.135081 Z M233.28054,140.191761 C234.239347,140.191761 235.070313,139.980824 235.773438,139.558949 C236.476563,139.137074 237.020952,138.546875 237.406605,137.788352 C237.792259,137.02983 237.985085,136.143466 237.985085,135.129261 C237.985085,134.115057 237.792259,133.226562 237.406605,132.463778 C237.020952,131.700994 236.476563,131.108665 235.773438,130.68679 C235.070313,130.264915 234.239347,130.053977 233.28054,130.053977 C232.321733,130.053977 231.490767,130.264915 230.787642,130.68679 C230.084517,131.108665 229.540128,131.700994 229.154474,132.463778 C228.768821,133.226562 228.575994,134.115057 228.575994,135.129261 C228.575994,136.143466 228.768821,137.02983 229.154474,137.788352 C229.540128,138.546875 230.084517,139.137074 230.787642,139.558949 C231.490767,139.980824 232.321733,140.191761 233.28054,140.191761 Z M233.293324,138.338068 C232.760653,138.338068 232.318537,138.194247 231.966974,137.906605 C231.615412,137.618963 231.353338,137.232244 231.180753,136.746449 C231.008168,136.260653 230.921875,135.71946 230.921875,135.122869 C230.921875,134.522017 231.008168,133.977628 231.180753,133.489702 C231.353338,133.001776 231.615412,132.612926 231.966974,132.323153 C232.318537,132.033381 232.760653,131.888494 233.293324,131.888494 C233.81321,131.888494 234.247869,132.033381 234.597301,132.323153 C234.946733,132.612926 235.207741,133.001776 235.380327,133.489702 C235.552912,133.977628 235.639205,134.522017 235.639205,135.122869 C235.639205,135.71946 235.552912,136.260653 235.380327,136.746449 C235.207741,137.232244 234.946733,137.618963 234.597301,137.906605 C234.247869,138.194247 233.81321,138.338068 233.293324,138.338068 Z M241.754972,140 L241.754972,134.227983 C241.754972,133.810369 241.850852,133.441761 242.042614,133.122159 C242.234375,132.802557 242.497514,132.552202 242.832031,132.371094 C243.166548,132.189986 243.544744,132.099432 243.966619,132.099432 C244.162642,132.099432 244.366122,132.113281 244.57706,132.14098 C244.787997,132.168679 244.942472,132.199574 245.040483,132.233665 L245.040483,132.233665 L245.040483,130.105114 C244.933949,130.083807 244.800781,130.067827 244.64098,130.057173 C244.481179,130.04652 244.337358,130.041193 244.209517,130.041193 C243.647017,130.041193 243.147372,130.195668 242.710582,130.504616 C242.273793,130.813565 241.965909,131.25142 241.786932,131.818182 L241.786932,131.818182 L241.684659,131.818182 L241.684659,130.181818 L239.441051,130.181818 L239.441051,140 L241.754972,140 Z M82.1292614,158 L82.129,149.972 L84.1619318,149.971591 L84.1619318,148.181818 L82.129,148.182 L82.1292614,147.408381 C82.1292614,147.079647 82.1942254,146.815877 82.3241535,146.617072 L82.3945312,146.523082 C82.5713778,146.316406 82.875,146.213068 83.3053977,146.213068 C83.4886364,146.213068 83.6548295,146.229048 83.8039773,146.261009 C83.953125,146.292969 84.0767045,146.323864 84.1747159,146.353693 L84.1747159,146.353693 L84.6349432,144.56392 C84.4857955,144.512784 84.2556818,144.455256 83.9446023,144.391335 C83.6335227,144.327415 83.2776989,144.295455 82.8771307,144.295455 C82.3103693,144.295455 81.7947443,144.404119 81.3302557,144.621449 C80.865767,144.838778 80.4960938,145.166903 80.2212358,145.605824 C79.9463778,146.044744 79.8089489,146.59446 79.8089489,147.254972 L79.8089489,147.254972 L79.808,148.182 L78.3579545,148.181818 L78.3579545,149.971591 L79.808,149.972 L79.8089489,158 L82.1292614,158 Z M89.3892045,158.191761 C90.3480114,158.191761 91.1789773,157.980824 91.8821023,157.558949 C92.5852273,157.137074 93.1296165,156.546875 93.5152699,155.788352 C93.9009233,155.02983 94.09375,154.143466 94.09375,153.129261 C94.09375,152.115057 93.9009233,151.226562 93.5152699,150.463778 C93.1296165,149.700994 92.5852273,149.108665 91.8821023,148.68679 C91.1789773,148.264915 90.3480114,148.053977 89.3892045,148.053977 C88.4303977,148.053977 87.5994318,148.264915 86.8963068,148.68679 C86.1931818,149.108665 85.6487926,149.700994 85.2631392,150.463778 C84.8774858,151.226562 84.6846591,152.115057 84.6846591,153.129261 C84.6846591,154.143466 84.8774858,155.02983 85.2631392,155.788352 C85.6487926,156.546875 86.1931818,157.137074 86.8963068,157.558949 C87.5994318,157.980824 88.4303977,158.191761 89.3892045,158.191761 Z M89.4019886,156.338068 C88.8693182,156.338068 88.4272017,156.194247 88.0756392,155.906605 C87.7240767,155.618963 87.4620028,155.232244 87.2894176,154.746449 C87.1168324,154.260653 87.0305398,153.71946 87.0305398,153.122869 C87.0305398,152.522017 87.1168324,151.977628 87.2894176,151.489702 C87.4620028,151.001776 87.7240767,150.612926 88.0756392,150.323153 C88.4272017,150.033381 88.8693182,149.888494 89.4019886,149.888494 C89.921875,149.888494 90.3565341,150.033381 90.7059659,150.323153 C91.0553977,150.612926 91.3164062,151.001776 91.4889915,151.489702 C91.6615767,151.977628 91.7478693,152.522017 91.7478693,153.122869 C91.7478693,153.71946 91.6615767,154.260653 91.4889915,154.746449 C91.3164062,155.232244 91.0553977,155.618963 90.7059659,155.906605 C90.3565341,156.194247 89.921875,156.338068 89.4019886,156.338068 Z M97.8636364,158 L97.8636364,152.227983 C97.8636364,151.810369 97.959517,151.441761 98.1512784,151.122159 C98.3430398,150.802557 98.606179,150.552202 98.940696,150.371094 C99.2752131,150.189986 99.6534091,150.099432 100.075284,150.099432 C100.271307,150.099432 100.474787,150.113281 100.685724,150.14098 C100.896662,150.168679 101.051136,150.199574 101.149148,150.233665 L101.149148,150.233665 L101.149148,148.105114 C101.042614,148.083807 100.909446,148.067827 100.749645,148.057173 C100.589844,148.04652 100.446023,148.041193 100.318182,148.041193 C99.7556818,148.041193 99.2560369,148.195668 98.8192472,148.504616 C98.3824574,148.813565 98.0745739,149.25142 97.8955966,149.818182 L97.8955966,149.818182 L97.7933239,149.818182 L97.7933239,148.181818 L95.5497159,148.181818 L95.5497159,158 L97.8636364,158 Z M110.696023,158 C112.025568,158 113.164418,157.737926 114.112571,157.213778 C115.060724,156.689631 115.787287,155.9375 116.292259,154.957386 C116.79723,153.977273 117.049716,152.805398 117.049716,151.441761 C117.049716,150.082386 116.798295,148.914773 116.295455,147.93892 C115.792614,146.963068 115.073509,146.214134 114.138139,145.692116 C113.20277,145.170099 112.085227,144.909091 110.785511,144.909091 L110.785511,144.909091 L106.259943,144.909091 L106.259943,158 L110.696023,158 Z M110.580966,155.948153 L108.631392,155.948153 L108.631392,146.960938 L110.651278,146.960938 C111.537642,146.960938 112.280185,147.126065 112.878906,147.456321 C113.477628,147.786577 113.930398,148.283026 114.237216,148.945668 C114.544034,149.60831 114.697443,150.440341 114.697443,151.441761 C114.697443,152.443182 114.544034,153.277344 114.237216,153.944247 C113.930398,154.611151 113.472301,155.111861 112.862926,155.446378 C112.253551,155.780895 111.492898,155.948153 110.580966,155.948153 L110.580966,155.948153 Z M123.044034,158.191761 C123.806818,158.191761 124.484375,158.075639 125.076705,157.843395 C125.669034,157.611151 126.155895,157.283026 126.537287,156.85902 C126.918679,156.435014 127.177557,155.9375 127.31392,155.366477 L127.31392,155.366477 L125.153409,155.12358 C125.051136,155.400568 124.899858,155.632812 124.699574,155.820312 C124.49929,156.007812 124.262784,156.149503 123.990057,156.245384 C123.71733,156.341264 123.412642,156.389205 123.075994,156.389205 C122.573153,156.389205 122.134233,156.281605 121.759233,156.066406 C121.384233,155.851207 121.09233,155.540128 120.883523,155.133168 C120.674716,154.726207 120.570312,154.237216 120.570312,153.666193 L120.571,153.724 L127.409801,153.723722 L127.409801,153.014205 C127.409801,152.153409 127.290483,151.410866 127.051847,150.786577 C126.81321,150.162287 126.486151,149.647727 126.070668,149.242898 C125.655185,148.838068 125.177912,148.538707 124.638849,148.344815 C124.099787,148.150923 123.527699,148.053977 122.922585,148.053977 C121.985085,148.053977 121.169034,148.268111 120.474432,148.696378 C119.77983,149.124645 119.239702,149.721236 118.854048,150.486151 C118.468395,151.251065 118.275568,152.138494 118.275568,153.148438 C118.275568,154.175426 118.46733,155.067116 118.850852,155.823509 C119.234375,156.579901 119.783026,157.163707 120.496804,157.574929 C121.210582,157.986151 122.059659,158.191761 123.044034,158.191761 Z M120.580522,152.088157 C120.611003,151.732156 120.708807,151.400568 120.873935,151.093395 C121.072088,150.724787 121.350142,150.426491 121.708097,150.198509 C122.066051,149.970526 122.481534,149.856534 122.954545,149.856534 C123.397727,149.856534 123.786577,149.956676 124.121094,150.15696 C124.455611,150.357244 124.716619,150.631037 124.904119,150.978338 C125.091619,151.325639 125.1875,151.720881 125.191761,152.164062 L125.191761,152.164062 L120.576,152.165 L120.580522,152.088157 Z M131.179688,158 L131.179688,152.247159 C131.179688,151.774148 131.268111,151.371449 131.444957,151.039062 C131.621804,150.706676 131.866832,150.45206 132.180043,150.275213 C132.493253,150.098366 132.852273,150.009943 133.257102,150.009943 C133.853693,150.009943 134.321378,150.195312 134.660156,150.566051 C134.998935,150.93679 135.168324,151.450284 135.168324,152.106534 L135.168324,152.106534 L135.168324,158 L137.482244,158 L137.482244,151.74858 C137.486506,150.964489 137.349077,150.297585 137.069957,149.747869 C136.790838,149.198153 136.398793,148.778409 135.893821,148.488636 C135.388849,148.198864 134.797585,148.053977 134.120028,148.053977 C133.387074,148.053977 132.772372,148.215909 132.275923,148.539773 C131.779474,148.863636 131.418324,149.300426 131.192472,149.850142 L131.192472,149.850142 L131.077415,149.850142 L131.077415,148.181818 L128.865767,148.181818 L128.865767,158 L131.179688,158 Z M143.62358,158.191761 C144.582386,158.191761 145.413352,157.980824 146.116477,157.558949 C146.819602,157.137074 147.363991,156.546875 147.749645,155.788352 C148.135298,155.02983 148.328125,154.143466 148.328125,153.129261 C148.328125,152.115057 148.135298,151.226562 147.749645,150.463778 C147.363991,149.700994 146.819602,149.108665 146.116477,148.68679 C145.413352,148.264915 144.582386,148.053977 143.62358,148.053977 C142.664773,148.053977 141.833807,148.264915 141.130682,148.68679 C140.427557,149.108665 139.883168,149.700994 139.497514,150.463778 C139.111861,151.226562 138.919034,152.115057 138.919034,153.129261 C138.919034,154.143466 139.111861,155.02983 139.497514,155.788352 C139.883168,156.546875 140.427557,157.137074 141.130682,157.558949 C141.833807,157.980824 142.664773,158.191761 143.62358,158.191761 Z M143.636364,156.338068 C143.103693,156.338068 142.661577,156.194247 142.310014,155.906605 C141.958452,155.618963 141.696378,155.232244 141.523793,154.746449 C141.351207,154.260653 141.264915,153.71946 141.264915,153.122869 C141.264915,152.522017 141.351207,151.977628 141.523793,151.489702 C141.696378,151.001776 141.958452,150.612926 142.310014,150.323153 C142.661577,150.033381 143.103693,149.888494 143.636364,149.888494 C144.15625,149.888494 144.590909,150.033381 144.940341,150.323153 C145.289773,150.612926 145.550781,151.001776 145.723366,151.489702 C145.895952,151.977628 145.982244,152.522017 145.982244,153.122869 C145.982244,153.71946 145.895952,154.260653 145.723366,154.746449 C145.550781,155.232244 145.289773,155.618963 144.940341,155.906605 C144.590909,156.194247 144.15625,156.338068 143.636364,156.338068 Z" id="StaticsitegeneratorforDeno" fill="#000000" fill-rule="nonzero"></path>
        <path d="M26.1726451,80.9779924 C27.0010722,80.9779924 27.6726451,81.6495653 27.6726451,82.4779924 C27.6726451,83.3064195 27.0010722,83.9779924 26.1726451,83.9779924 C25.344218,83.9779924 24.6726451,83.3064195 24.6726451,82.4779924 C24.6726451,81.6495653 25.344218,80.9779924 26.1726451,80.9779924 Z M20.1726451,79.9779924 C21.0010722,79.9779924 21.6726451,80.6495653 21.6726451,81.4779924 C21.6726451,82.3064195 21.0010722,82.9779924 20.1726451,82.9779924 C19.344218,82.9779924 18.6726451,82.3064195 18.6726451,81.4779924 C18.6726451,80.6495653 19.344218,79.9779924 20.1726451,79.9779924 Z" id="Shape" fill="#000000"></path>
    </g>
</svg>
